<?xml version="1.0" encoding="UTF-8" standalone="no"?>
<svg
   xmlns:dc="http://purl.org/dc/elements/1.1/"
   xmlns:cc="http://creativecommons.org/ns#"
   xmlns:rdf="http://www.w3.org/1999/02/22-rdf-syntax-ns#"
   xmlns:svg="http://www.w3.org/2000/svg"
   xmlns="http://www.w3.org/2000/svg"
   xmlns:sodipodi="http://sodipodi.sourceforge.net/DTD/sodipodi-0.dtd"
   xmlns:inkscape="http://www.inkscape.org/namespaces/inkscape"
   viewBox="0 0 229.7 129.39627"
   version="1.1"
   id="svg12"
   sodipodi:docname="android-logo.svg"
   width="229.7"
   height="129.39627"
   inkscape:version="0.92.4 (5da689c313, 2019-01-14)">
  <metadata
     id="metadata16">
    <rdf:RDF>
      <cc:Work
         rdf:about="">
        <dc:format>image/svg+xml</dc:format>
        <dc:type
           rdf:resource="http://purl.org/dc/dcmitype/StillImage" />
        <dc:title>Android1</dc:title>
      </cc:Work>
    </rdf:RDF>
  </metadata>
  <sodipodi:namedview
     pagecolor="#ffffff"
     bordercolor="#666666"
     borderopacity="1"
     objecttolerance="10"
     gridtolerance="10"
     guidetolerance="10"
     inkscape:pageopacity="0"
     inkscape:pageshadow="2"
     inkscape:window-width="508"
     inkscape:window-height="1113"
     id="namedview14"
     showgrid="false"
     fit-margin-top="0"
     fit-margin-left="0"
     fit-margin-right="0"
     fit-margin-bottom="0"
     inkscape:zoom="0.38554774"
     inkscape:cx="-203.45001"
     inkscape:cy="64.4"
     inkscape:window-x="1024"
     inkscape:window-y="18"
     inkscape:window-maximized="0"
     inkscape:current-layer="svg12" />
  <defs
     id="defs4">
    <style
       id="style2">.a{fill:#3ddc84;}</style>
  </defs>
  <title
     id="title6">Android1</title>
  <path
     class="a"
     d="m 167.8,96.696277 a 9.6,9.6 0 1 1 9.6,-9.6 9.6,9.6 0 0 1 -9.6,9.6 m -105.7,0 a 9.6,9.6 0 1 1 9.6,-9.6 9.6,9.6 0 0 1 -9.6,9.6 m 109.1,-57.6 19.2,-33.1 a 3.963,3.963 0 1 0 -6.9,-3.9 l -19.4,33.5 a 117.178,117.178 0 0 0 -49.1,-10.6 119.152,119.152 0 0 0 -49.2,10.5 l -19.4,-33.5 a 3.963,3.963 0 0 0 -6.9,3.9 l 19.1,33.1 A 113.107,113.107 0 0 0 0,129.39628 H 229.7 A 112.53,112.53 0 0 0 171.2,39.096277"
     id="path10"
     inkscape:connector-curvature="0"
     style="fill:#3ddc84" />
</svg>
